<?xml version="1.0" encoding="UTF-8" standalone="no"?>
<!-- Created with Inkscape (http://www.inkscape.org/) -->

<svg
   xmlns:dc="http://purl.org/dc/elements/1.1/"
   xmlns:cc="http://creativecommons.org/ns#"
   xmlns:rdf="http://www.w3.org/1999/02/22-rdf-syntax-ns#"
   xmlns:svg="http://www.w3.org/2000/svg"
   xmlns="http://www.w3.org/2000/svg"
   xmlns:sodipodi="http://sodipodi.sourceforge.net/DTD/sodipodi-0.dtd"
   xmlns:inkscape="http://www.inkscape.org/namespaces/inkscape"
   width="92mm"
   height="51.744999mm"
   viewBox="0 0 92 51.744999"
   version="1.1"
   id="svg3869"
   inkscape:version="0.92.3 (2405546, 2018-03-11)"
   sodipodi:docname="buffer-not.svg">
  <defs
     id="defs3863" />
  <sodipodi:namedview
     id="base"
     pagecolor="#ffffff"
     bordercolor="#666666"
     borderopacity="1.0"
     inkscape:pageopacity="0.0"
     inkscape:pageshadow="2"
     inkscape:zoom="1.4"
     inkscape:cx="410.66017"
     inkscape:cy="255.68393"
     inkscape:document-units="mm"
     inkscape:current-layer="layer1"
     showgrid="false"
     inkscape:window-width="2560"
     inkscape:window-height="1373"
     inkscape:window-x="-9"
     inkscape:window-y="-9"
     inkscape:window-maximized="1"
     inkscape:pagecheckerboard="true" />
  <metadata
     id="metadata3866">
    <rdf:RDF>
      <cc:Work
         rdf:about="">
        <dc:format>image/svg+xml</dc:format>
        <dc:type
           rdf:resource="http://purl.org/dc/dcmitype/StillImage" />
        <dc:title></dc:title>
      </cc:Work>
    </rdf:RDF>
  </metadata>
  <g
     inkscape:label="Layer 1"
     inkscape:groupmode="layer"
     id="layer1"
     transform="translate(0,-245.255)">
    <path
       inkscape:connector-curvature="0"
       id="path12162"
       style="display:inline;fill:none;fill-opacity:1;stroke:#000000;stroke-width:2.17555714;stroke-linecap:square;stroke-miterlimit:4;stroke-dashoffset:0;stroke-opacity:1"
       d="m 71.840507,271.29756 c 0,2.40182 -1.949294,4.35114 -4.351109,4.35114 -2.401815,0 -4.351117,-1.94932 -4.351117,-4.35114 0,-2.40181 1.949302,-4.35106 4.351117,-4.35106 2.401815,0 4.351109,1.94925 4.351109,4.35106 z m -51.125475,23.93116 v -47.86223 l 41.304222,23.93107 z m 51.12559,-23.93116 H 91.42077 m -90.2857525,0 H 20.715163" />
    <path
       style="fill:#ffffff;stroke-width:0.71428573"
       d="m 82.803027,98.459148 c 0,-45.178571 0.215738,-82.142857 0.479417,-82.142857 0.725236,0 141.665296,81.731643 141.649166,82.142857 -0.0158,0.403036 -141.012051,82.142862 -141.691449,82.142862 -0.240423,0 -0.437134,-36.96429 -0.437134,-82.142862 z"
       id="path4030"
       inkscape:connector-curvature="0"
       transform="matrix(0.26458333,0,0,0.26458333,0,245.255)" />
    <path
       style="fill:#ffffff;stroke-width:0.71428573"
       d="m 250.24688,109.24748 c -10.11198,-4.59263 -9.05321,-19.037052 1.63004,-22.23783 4.43404,-1.32847 7.85093,-0.385073 11.37723,3.141227 6.26761,6.267603 4.53009,15.399233 -3.63586,19.108513 -3.64237,1.6545 -5.70812,1.65187 -9.37141,-0.0119 z"
       id="path4032"
       inkscape:connector-curvature="0"
       transform="matrix(0.26458333,0,0,0.26458333,0,245.255)" />
  </g>
</svg>
