<?xml version="1.0" encoding="UTF-8" standalone="no"?>
<!-- Created with Inkscape (http://www.inkscape.org/) -->

<svg
   xmlns:dc="http://purl.org/dc/elements/1.1/"
   xmlns:cc="http://creativecommons.org/ns#"
   xmlns:rdf="http://www.w3.org/1999/02/22-rdf-syntax-ns#"
   xmlns:svg="http://www.w3.org/2000/svg"
   xmlns="http://www.w3.org/2000/svg"
   xmlns:sodipodi="http://sodipodi.sourceforge.net/DTD/sodipodi-0.dtd"
   xmlns:inkscape="http://www.inkscape.org/namespaces/inkscape"
   width="96.800003mm"
   height="51.744999mm"
   viewBox="0 0 96.800003 51.744999"
   version="1.1"
   id="svg3869"
   inkscape:version="0.92.3 (2405546, 2018-03-11)"
   sodipodi:docname="logical-and.svg">
  <defs
     id="defs3863" />
  <sodipodi:namedview
     id="base"
     pagecolor="#ffffff"
     bordercolor="#666666"
     borderopacity="1.0"
     inkscape:pageopacity="0.0"
     inkscape:pageshadow="2"
     inkscape:zoom="1.4"
     inkscape:cx="410.66017"
     inkscape:cy="255.68393"
     inkscape:document-units="mm"
     inkscape:current-layer="layer1"
     showgrid="false"
     inkscape:window-width="2560"
     inkscape:window-height="1373"
     inkscape:window-x="-9"
     inkscape:window-y="-9"
     inkscape:window-maximized="1"
     inkscape:pagecheckerboard="true" />
  <metadata
     id="metadata3866">
    <rdf:RDF>
      <cc:Work
         rdf:about="">
        <dc:format>image/svg+xml</dc:format>
        <dc:type
           rdf:resource="http://purl.org/dc/dcmitype/StillImage" />
        <dc:title></dc:title>
      </cc:Work>
    </rdf:RDF>
  </metadata>
  <g
     inkscape:label="Layer 1"
     inkscape:groupmode="layer"
     id="layer1"
     transform="translate(0,-245.255)">
    <path
       id="path6087"
       style="display:inline;fill:none;fill-opacity:1;stroke:#000000;stroke-width:1.91750717;stroke-linecap:square;stroke-miterlimit:4;stroke-dashoffset:0;stroke-opacity:1"
       d="m 54.074429,296.04124 c -13.612781,0 -36.042819,0 -36.042819,0 v -50.39168 l 36.042819,-0.003 c 13.612782,0 24.660842,11.28839 24.660842,25.19723 0,13.90884 -11.04806,25.19723 -24.660842,25.19723 z m 24.660842,-25.19723 h 17.17992 M 0.95875359,258.24543 H 18.031757 M 0.95875359,283.44266 H 18.031757"
       inkscape:connector-curvature="0" />
    <path
       style="fill:#ffffff;stroke-width:0.71428573"
       d="M 72.088741,96.673434 V 5.6020052 h 70.263579 c 59.06812,0 71.23688,0.1697296 76.3721,1.0652367 17.93516,3.1276312 34.41149,11.5952561 47.26725,24.2919061 7.46959,7.377148 12.26951,13.900574 17.08098,23.214286 11.00106,21.295058 13.36957,45.003921 6.85027,68.571426 -1.93054,6.97896 -8.18656,19.98327 -12.97171,26.96407 -10.60496,15.47106 -29.99058,29.56363 -47.71961,34.69024 -11.41007,3.29939 -12.61229,3.34569 -86.87928,3.34569 H 72.088741 Z"
       id="path4060"
       inkscape:connector-curvature="0"
       transform="matrix(0.26458333,0,0,0.26458333,0,245.255)" />
  </g>
</svg>
