<?xml version="1.0" encoding="UTF-8" standalone="no"?>
<!-- Created with Inkscape (http://www.inkscape.org/) -->

<svg
   xmlns:dc="http://purl.org/dc/elements/1.1/"
   xmlns:cc="http://creativecommons.org/ns#"
   xmlns:rdf="http://www.w3.org/1999/02/22-rdf-syntax-ns#"
   xmlns:svg="http://www.w3.org/2000/svg"
   xmlns="http://www.w3.org/2000/svg"
   xmlns:sodipodi="http://sodipodi.sourceforge.net/DTD/sodipodi-0.dtd"
   xmlns:inkscape="http://www.inkscape.org/namespaces/inkscape"
   width="108mm"
   height="51.744999mm"
   viewBox="0 0 108 51.744999"
   version="1.1"
   id="svg3869"
   inkscape:version="0.92.3 (2405546, 2018-03-11)"
   sodipodi:docname="logical-nor.svg">
  <defs
     id="defs3863" />
  <sodipodi:namedview
     id="base"
     pagecolor="#ffffff"
     bordercolor="#666666"
     borderopacity="1.0"
     inkscape:pageopacity="0.0"
     inkscape:pageshadow="2"
     inkscape:zoom="1.4"
     inkscape:cx="410.66017"
     inkscape:cy="255.68393"
     inkscape:document-units="mm"
     inkscape:current-layer="layer1"
     showgrid="false"
     inkscape:window-width="2560"
     inkscape:window-height="1373"
     inkscape:window-x="-9"
     inkscape:window-y="-9"
     inkscape:window-maximized="1"
     inkscape:pagecheckerboard="true" />
  <metadata
     id="metadata3866">
    <rdf:RDF>
      <cc:Work
         rdf:about="">
        <dc:format>image/svg+xml</dc:format>
        <dc:type
           rdf:resource="http://purl.org/dc/dcmitype/StillImage" />
        <dc:title></dc:title>
      </cc:Work>
    </rdf:RDF>
  </metadata>
  <g
     inkscape:label="Layer 1"
     inkscape:groupmode="layer"
     id="layer1"
     transform="translate(0,-245.255)">
    <path
       inkscape:connector-curvature="0"
       id="path10206"
       style="display:inline;fill:none;fill-opacity:1;stroke:#000000;stroke-width:1.92700016;stroke-linecap:square;stroke-miterlimit:4;stroke-dashoffset:0;stroke-opacity:1"
       d="m 13.489005,245.93498 v 0.12017 c 4.236951,7.3519 6.684279,15.84136 6.684279,24.93059 0,9.0893 -2.447328,17.57876 -6.684279,24.93059 v 0.12017 h 6.684279 19.270007 c 18.519836,0 34.686139,-10.09619 43.357498,-25.05106 C 74.12943,256.03059 57.963127,245.93447 39.443291,245.93447 H 20.173284 Z m 77.08001,25.0517 c 0,2.12741 -1.7266,3.85403 -3.854003,3.85403 -2.127416,0 -3.854003,-1.72662 -3.854003,-3.85403 0,-2.1274 1.726587,-3.85402 3.854003,-3.85402 2.127403,0 3.854003,1.72662 3.854003,3.85402 z m -5.3e-4,-7.2e-4 H 107.91262 M 0.96350008,258.46047 H 18.30662 M 0.96350008,283.51144 H 18.30662" />
    <path
       style="fill:#ffffff;stroke-width:0.71428573"
       d="M 57.95282,187.20915 C 72.716185,157.79037 78.943225,133.61903 79.73403,102.66161 80.561672,70.26211 74.962269,43.103032 61.652915,14.96183 59.535477,10.484734 57.803027,6.7079483 57.803027,6.5689731 c 0,-0.5959696 94.824233,-0.1755502 103.629803,0.4594604 24.875,1.7938519 46.87729,7.7241605 68.945,18.5828405 29.92471,14.724816 54.87923,36.674793 73.38911,64.553024 l 4.65156,7.005829 -3.26248,5.108803 c -14.57521,22.8237 -35.74398,43.64018 -59.13871,58.15453 -16.20032,10.05085 -39.62472,19.45823 -58.13152,23.34596 -17.68392,3.71486 -22.64627,3.96544 -78.53077,3.96544 -28.419071,0 -51.550062,-0.24107 -51.4022,-0.53571 z"
       id="path4050"
       inkscape:connector-curvature="0"
       transform="matrix(0.26458333,0,0,0.26458333,0,245.255)" />
    <path
       style="fill:#ffffff;stroke-width:0.71428573"
       d="m 322.95887,106.55695 c -3.64003,-1.7941 -5.51299,-4.95208 -5.51299,-9.295423 0,-12.956848 18.74363,-14.065922 20.73972,-1.227184 0.33154,2.132414 0.0414,3.514857 -1.24283,5.920997 -2.8178,5.27961 -8.68869,7.21151 -13.9839,4.60161 z"
       id="path4052"
       inkscape:connector-curvature="0"
       transform="matrix(0.26458333,0,0,0.26458333,0,245.255)" />
  </g>
</svg>
