<?xml version="1.0" encoding="UTF-8" standalone="no"?>
<!-- Created with Inkscape (http://www.inkscape.org/) -->

<svg
   xmlns:dc="http://purl.org/dc/elements/1.1/"
   xmlns:cc="http://creativecommons.org/ns#"
   xmlns:rdf="http://www.w3.org/1999/02/22-rdf-syntax-ns#"
   xmlns:svg="http://www.w3.org/2000/svg"
   xmlns="http://www.w3.org/2000/svg"
   xmlns:sodipodi="http://sodipodi.sourceforge.net/DTD/sodipodi-0.dtd"
   xmlns:inkscape="http://www.inkscape.org/namespaces/inkscape"
   width="117.594mm"
   height="153.576mm"
   viewBox="0 0 117.594 153.576"
   version="1.1"
   id="svg8"
   sodipodi:docname="logo.svg"
   inkscape:version="0.92.3 (2405546, 2018-03-11)">
  <defs
     id="defs2" />
  <sodipodi:namedview
     id="base"
     pagecolor="#ffffff"
     bordercolor="#666666"
     borderopacity="1.0"
     inkscape:pageopacity="0.0"
     inkscape:pageshadow="2"
     inkscape:zoom="0.98994949"
     inkscape:cx="192.90444"
     inkscape:cy="117.53876"
     inkscape:document-units="mm"
     inkscape:current-layer="layer1"
     showgrid="false"
     inkscape:window-width="2560"
     inkscape:window-height="1373"
     inkscape:window-x="-9"
     inkscape:window-y="-9"
     inkscape:window-maximized="1" />
  <metadata
     id="metadata5">
    <rdf:RDF>
      <cc:Work
         rdf:about="">
        <dc:format>image/svg+xml</dc:format>
        <dc:type
           rdf:resource="http://purl.org/dc/dcmitype/StillImage" />
        <dc:title></dc:title>
      </cc:Work>
    </rdf:RDF>
  </metadata>
  <g
     inkscape:label="Layer 1"
     inkscape:groupmode="layer"
     id="layer1"
     transform="translate(0,-143.42401)">
    <path
       inkscape:connector-curvature="0"
       id="path4535"
       d="m 39.406027,296.6088 c -0.924084,-0.26377 -3.486252,-2.58555 -10.184102,-9.2286 -4.922156,-4.88189 -9.406844,-9.4953 -9.965972,-10.25201 l -1.016593,-1.37585 -0.0042,-16.08665 -0.0042,-16.08666 -2.200677,-1.18932 C 8.3617663,238.24535 3.3707533,232.06605 1.3193143,224.17626 c -1.34741096,-5.18213 -1.53930096,-9.93644 -1.12484096,-27.86945 0.414616,-17.9398 0.733281,-21.13986 2.70500996,-27.16389 5.393555,-16.47841 20.4779517,-24.38028 48.7655707,-25.54557 32.379711,-1.33385 52.219476,5.03616 60.335056,19.37196 2.62284,4.63312 4.32301,10.90249 4.97476,18.34444 0.56962,6.50407 0.84731,32.42316 0.39118,36.5125 -0.81589,7.31481 -2.88467,12.79773 -6.46781,17.14174 -2.07549,2.51621 -5.95301,5.60697 -9.31094,7.42172 l -2.200675,1.18932 -0.004,16.08666 -0.004,16.08665 -1.01659,1.37585 c -0.55913,0.75671 -5.04382,5.36779 -9.96598,10.24683 -7.3699,7.30534 -9.19842,8.93936 -10.36049,9.25845 -1.83456,0.50374 -36.856299,0.48137 -38.629163,-0.0247 z m 43.306408,-16.25556 7.84637,-7.85218 v -11.5506 c 0,-6.35283 -0.11266,-11.55059 -0.25035,-11.55059 -0.13769,0 -2.638,2.36527 -5.55625,5.25617 -5.82897,5.77433 -6.84613,6.38555 -9.27297,5.57215 -2.091111,-0.70088 -2.522071,-1.68144 -4.006861,-9.11681 -0.74979,-3.75473 -1.44822,-7.18398 -1.55208,-7.62054 l -0.18882,-0.79375 h -10.92267 -10.92267 l -0.188821,0.79375 c -0.103854,0.43656 -0.80229,3.86581 -1.552081,7.62054 -1.484788,7.43537 -1.915749,8.41593 -4.006853,9.11681 -2.42684,0.8134 -3.444007,0.20218 -9.272976,-5.57215 -2.918248,-2.8909 -5.41856,-5.25617 -5.556249,-5.25617 -0.137693,0 -0.250349,5.19098 -0.250349,11.53552 v 11.53552 l 7.83893,7.86726 7.838927,7.86725 H 58.801368 74.866075 Z M 39.591793,241.3285 c 1.296257,-6.67587 1.458859,-6.87713 5.692711,-7.04604 1.714546,-0.0684 3.315794,-0.28628 3.558328,-0.48418 0.338685,-0.27634 0.440973,-3.45936 0.440973,-13.72216 v -13.36237 h -3.175 c -2.623545,0 -3.175,0.0943 -3.175,0.54322 0,1.11498 -1.390167,3.24257 -2.362655,3.61596 -1.800536,0.69132 -2.387061,0.76087 -3.756858,0.4455 -1.728043,-0.39784 -2.955343,-1.55201 -3.467262,-3.26063 l -0.402685,-1.34405 h -2.94277 -2.94277 v 14.87921 14.8792 l 5.366162,5.40662 c 4.194059,4.22568 5.455247,5.31006 5.774006,4.96455 0.224314,-0.24314 0.851083,-2.72481 1.39282,-5.51483 z m 51.319792,-19.81158 c 0,-10.93345 -0.10766,-14.76971 -0.42334,-15.08539 -0.57481,-0.57481 -5.02585,-0.5605 -5.48471,0.0176 -0.1925,0.24254 -0.53405,1.01294 -0.75899,1.71201 -1.43745,4.46723 -8.44031,4.35374 -9.40318,-0.15239 -0.39489,-1.84805 -0.69471,-2.00059 -3.932061,-2.00059 -2.80858,0 -3.04119,-0.0586 -3.9878,-1.00526 -1.36395,-1.36394 -1.66974,-3.16726 -0.82894,-4.88843 1.01058,-2.06873 1.68106,-2.17762 13.547771,-2.20029 7.61457,-0.0145 10.53869,-0.13402 10.84791,-0.44324 0.28474,-0.28474 0.42334,-1.88757 0.42334,-4.8957 0,-5.16823 -0.13999,-5.46183 -2.31649,-4.85857 -2.32765,0.64515 -5.79629,0.14637 -8.98059,-1.29138 l -2.83451,-1.27981 -2.19462,1.05452 c -5.119991,2.46016 -8.337591,2.45796 -13.559468,-0.009 l -2.204646,-1.04169 -2.900377,1.30956 c -4.74915,2.1443 -8.689248,2.01571 -13.379273,-0.43663 l -1.689171,-0.88325 -2.841917,1.28317 c -3.19653,1.44327 -6.657739,1.9406 -8.995812,1.29256 -1.06715,-0.29577 -1.461421,-0.285 -1.675734,0.0458 -0.154139,0.23792 -0.240548,2.5757 -0.192017,5.19508 l 0.08823,4.7625 13.758333,0.17638 c 10.256467,0.1315 13.959434,0.29129 14.548432,0.62782 1.835033,1.04847 1.855734,1.25721 1.855734,18.71425 0,12.79879 0.09558,16.28144 0.455059,16.57977 0.287362,0.23849 3.599096,0.41692 8.986696,0.48417 8.085911,0.10094 8.569811,0.1447 9.262171,0.83769 0.53462,0.53511 1.02123,2.14338 1.81454,5.99723 0.59621,2.89631 1.25188,5.47453 1.45704,5.72937 0.28931,0.35935 1.62609,-0.78786 5.95571,-5.11114 l 5.58268,-5.57451 z M 18.867178,172.58615 c 1.007544,-1.76341 4.493443,-2.51083 6.272787,-1.34496 1.088976,0.71353 1.769904,2.08373 2.024754,4.07433 0.27897,2.17899 2.405528,4.23497 4.378343,4.23303 2.652709,-0.002 4.366958,-1.77254 4.835116,-4.99214 0.286501,-1.97032 1.385739,-3.27886 3.167718,-3.77089 2.471455,-0.6824 4.962881,0.75503 5.352493,3.08813 0.587904,3.52052 1.919584,5.24911 4.288638,5.56686 2.65702,0.35638 4.779723,-1.46868 5.175141,-4.44949 0.783145,-5.90363 8.115786,-5.86098 8.900146,0.0518 0.17944,1.35274 0.53334,2.1325 1.39416,3.07181 1.05452,1.15069 1.32031,1.25888 3.09264,1.25888 1.57815,0 2.11682,-0.16412 2.89479,-0.88195 1.14039,-1.05224 1.92323,-2.75976 1.92323,-4.19494 0,-0.60438 0.38022,-1.49445 0.90462,-2.11767 1.466121,-1.74238 3.730471,-2.03834 6.059341,-0.79196 0.77265,0.41351 1.85468,2.75897 1.85681,4.02491 0.004,2.07941 2.37018,4.13799 4.75732,4.13799 1.89965,0 4.03418,-2.09819 4.30767,-4.23434 0.39626,-3.09519 1.8448,-4.68131 4.27523,-4.68131 1.86981,0 3.5523,0.97385 4.14875,2.40137 0.41974,1.00458 0.50137,5.99992 0.50137,30.68065 v 29.48068 l 0.736265,-0.39403 c 1.42612,-0.76324 4.77808,-4.51009 5.86543,-6.55642 1.39117,-2.61813 2.14463,-5.53483 2.56036,-9.91137 0.4068,-4.28261 -0.14305,-33.42742 -0.69963,-37.08319 -1.18983,-7.81522 -3.07291,-11.96959 -7.39512,-16.31479 -2.591585,-2.60537 -3.534235,-3.28576 -6.715345,-4.84697 -8.28885,-4.06798 -18.36611,-5.70794 -35.028811,-5.70052 -18.709812,0.008 -30.771263,2.42499 -38.441509,7.70226 -2.116649,1.45629 -5.590611,5.24703 -6.88581,7.51371 -1.434719,2.51083 -2.740667,6.49208 -3.4648137,10.56263 -0.779677,4.38271 -1.162974,37.02679 -0.484293,41.24554 0.8310597,5.16594 3.0976387,9.3361 6.6451547,12.22607 l 1.992849,1.62346 0.176388,-29.94352 c 0.137937,-23.41586 0.2748,-30.11576 0.627818,-30.73362 z"
       style="fill:#4f5264;stroke-width:0.35277778" />
    <path
       style="fill:none;fill-opacity:0;stroke:#4f5264;stroke-width:0;stroke-miterlimit:4;stroke-dasharray:none;stroke-opacity:1"
       d="m 299.65188,388.91231 c -0.25703,-0.69448 -2.2591,-9.04865 -4.44903,-18.56483 -4.71882,-20.50526 -6.14207,-24.289 -9.63595,-25.61737 -1.42539,-0.54194 -16.69635,-1.37819 -33.93547,-1.85835 -22.04894,-0.61411 -31.70448,-1.23353 -32.56002,-2.08876 -0.90895,-0.90861 -1.35612,-16.70686 -1.77001,-62.53246 -0.59914,-66.33581 -0.66038,-67.0388 -6.09374,-69.94664 -3.13819,-1.67951 -30.62148,-2.87036 -67.71022,-2.93387 -17.00666,-0.0291 -33.04021,-0.34339 -35.63012,-0.69837 l -4.70892,-0.64543 0.27478,-18.29493 0.27479,-18.29494 3.03046,0.33318 c 1.66675,0.18324 7.34885,0.37167 12.6269,0.41873 10.17858,0.0907 19.36879,-2.26801 30.11472,-7.72925 l 4.71922,-2.39837 6.57415,3.28386 c 11.41196,5.70041 16.73896,7.06928 27.28228,7.01071 9.86865,-0.0548 14.87252,-1.358 28.94729,-7.53882 l 5.2087,-2.28736 8.56034,3.67748 c 20.64128,8.86741 31.65705,8.89959 50.85984,0.14859 4.23023,-1.92777 8.25355,-3.50504 8.94071,-3.50504 0.68717,0 4.33815,1.40051 8.1133,3.11224 13.65935,6.19344 26.7534,8.28946 36.48191,5.83979 7.32203,-1.84371 7.61607,-1.13303 7.58545,18.33351 -0.0168,10.64853 -0.42011,16.83108 -1.14543,17.55656 -0.75776,0.75794 -13.9165,1.33476 -40.71781,1.78487 -39.93357,0.67067 -45.34434,1.18476 -48.79585,4.63628 -6.13392,6.13391 -5.62603,17.31138 1.06724,23.48804 2.458,2.26828 3.87059,2.59066 13.87536,3.16663 12.57052,0.72368 13.78474,1.38429 15.8234,8.60897 2.39668,8.49344 12.25317,13.74001 21.72161,11.56234 7.13128,-1.64015 10.49448,-4.51702 14.12229,-12.0802 2.95277,-6.1559 3.50538,-6.72909 7.23748,-7.50711 5.69964,-1.1882 14.42982,0.0166 15.57098,2.14888 0.50412,0.94195 1.25114,26.15666 1.66005,56.03269 l 0.74346,54.32005 -2.92633,3.09731 c -7.5386,7.97907 -38.77666,37.22408 -39.76091,37.22408 -0.61025,0 -1.31985,-0.56821 -1.5769,-1.26269 z"
       id="path4553"
       inkscape:connector-curvature="0"
       transform="matrix(0.26458333,0,0,0.26458333,0,143.42401)" />
    <path
       style="fill:none;fill-opacity:0;stroke:#4f5264;stroke-width:0;stroke-miterlimit:4;stroke-dasharray:none;stroke-opacity:1"
       d="m 122.42909,371.36198 -19.2262,-18.81303 v -56.44334 -56.44334 h 10.3695 10.3695 l 1.75869,4.9517 c 2.0534,5.7815 7.06866,10.63034 12.5775,12.16016 5.16575,1.43454 7.18989,1.34742 12.75551,-0.54897 5.26653,-1.79449 8.91777,-5.77484 11.10763,-12.10885 l 1.36528,-3.94896 11.38329,-0.28673 11.38329,-0.28674 -0.3945,50.00936 c -0.27664,35.06909 -0.73236,50.34722 -1.52543,51.14029 -0.62201,0.62201 -6.25942,1.54319 -12.52758,2.04705 -7.32871,0.58911 -12.26523,1.48524 -13.83007,2.51056 -3.40633,2.23192 -4.9883,6.60645 -8.90197,24.61615 -4.31858,19.87302 -4.43393,20.25771 -6.07413,20.25771 -0.75026,0 -10.0159,-8.46585 -20.59031,-18.81302 z"
       id="path4555"
       inkscape:connector-curvature="0"
       transform="matrix(0.26458333,0,0,0.26458333,0,143.42401)" />
    <path
       style="fill:none;fill-opacity:0;stroke:#4f5264;stroke-width:0;stroke-miterlimit:4;stroke-dasharray:none;stroke-opacity:1"
       d="m 375.74046,226.79218 c -0.33573,-124.60388 0.12688,-116.84531 -7.23837,-121.39728 -5.0517,-3.12213 -13.24741,-3.76979 -17.81183,-1.40758 -3.82087,1.97741 -9.09137,10.78519 -9.09137,15.19302 0,2.8757 -2.46234,7.97569 -5.42146,11.2289 -5.10566,5.61308 -12.53789,6.73094 -19.29741,2.90248 -5.09791,-2.88737 -8.15111,-7.41737 -8.95569,-13.28752 -0.70846,-5.16875 -3.53307,-11.31583 -6.38455,-13.89442 -2.81291,-2.54372 -10.40086,-4.27154 -14.98347,-3.41184 -2.57962,0.48394 -5.26126,2.05105 -7.72398,4.51378 -3.67924,3.67923 -4.18238,4.83074 -5.37285,12.29659 -0.86809,5.44407 -6.0474,12.92503 -10.12917,14.6305 -4.45319,1.86067 -10.9451,1.86639 -14.52953,0.0128 -4.02367,-2.08072 -8.02978,-8.40304 -9.18526,-14.49589 -1.26802,-6.68617 -3.20078,-10.41166 -7.10656,-13.69815 -6.49889,-5.46847 -15.35912,-4.77175 -21.84894,1.71806 -3.52034,3.52035 -4.43959,5.29578 -5.47999,10.58403 -2.10733,10.71133 -8.4212,17.33838 -16.51609,17.33532 -8.60393,-0.003 -14.40223,-5.37701 -17.36922,-16.09741 -2.55158,-9.21946 -3.56581,-11.16671 -7.29953,-14.01456 -4.71819,-3.59873 -14.58497,-3.91118 -19.04943,-0.60324 -4.37971,3.24515 -6.99411,7.77814 -8.29258,14.37815 -1.39129,7.0718 -5.58356,13.40933 -10.1107,15.28453 -4.13834,1.71416 -12.22441,0.90013 -15.50374,-1.56078 -4.09858,-3.07568 -7.03265,-8.11054 -8.05095,-13.81537 -1.41027,-7.9008 -4.944353,-13.29427 -10.049598,-15.33698 -7.925479,-3.17115 -18.710955,0.24922 -21.936019,6.95651 -1.121344,2.3321 -1.551233,18.0919 -2.217106,81.27957 -0.454323,43.11258 -0.851123,93.50092 -0.881778,111.97409 -0.03412,20.56207 -0.428865,33.58757 -1.017885,33.58757 -2.01538,0 -17.042014,-15.93006 -20.538248,-21.77304 -2.012671,-3.36362 -5.087892,-10.37942 -6.833822,-15.59068 -2.797596,-8.35026 -3.29403,-11.58137 -4.182037,-27.21936 C 34.227837,253.63183 34.982161,178.55201 36.57014,149.7587 37.989401,124.02458 43.42957,103.6079 52.681587,89.29323 57.82302,81.338433 70.88453,67.691298 77.949078,62.892849 97.065975,49.908085 124.85858,41.461133 163.30697,36.950194 c 21.83794,-2.562126 97.43887,-2.59845 118.56064,-0.05696 81.54348,9.811748 118.28198,39.412878 125.30796,100.963746 2.53998,22.25139 4.04614,126.07927 2.06334,142.23789 -2.84503,23.18528 -8.76211,35.86056 -23.70689,50.78363 -10.6444,10.62895 -9.4482,23.34474 -9.79156,-104.08632 z"
       id="path4557"
       inkscape:connector-curvature="0"
       transform="matrix(0.26458333,0,0,0.26458333,0,143.42401)" />
    <path
       style="fill:none;fill-opacity:0;stroke:#4f5264;stroke-width:0;stroke-miterlimit:4;stroke-dasharray:none;stroke-opacity:1"
       d="m 132.73241,517.18434 -29.55157,-29.56431 0.26356,-43.06417 0.26357,-43.06416 19.52998,18.60791 c 10.74149,10.23435 21.2921,19.50688 23.4458,20.60562 5.13154,2.61792 10.61671,2.5051 15.61307,-0.32114 5.60977,-3.17322 7.37678,-8.17737 13.56023,-38.40241 2.82017,-13.78514 5.12759,-25.26299 5.12759,-25.50635 0,-0.24336 18.52367,-0.44121 41.16371,-0.43969 l 41.16372,0.003 5.35677,26.00865 c 7.24812,35.19164 9.35578,39.36618 20.41185,40.42853 7.2196,0.69371 11.18287,-2.0671 32.35077,-22.53554 10.03538,-9.70378 18.67844,-17.64323 19.20679,-17.64323 0.59227,0 0.96064,16.36846 0.96064,42.68537 v 42.68536 l -29.55327,29.54055 -29.55328,29.54054 h -60.10419 -60.10418 z"
       id="path4559"
       inkscape:connector-curvature="0"
       transform="matrix(0.26458333,0,0,0.26458333,0,143.42401)" />
  </g>
</svg>
